<?xml version="1.0" standalone="no"?>
<!DOCTYPE svg PUBLIC "-//W3C//DTD SVG 20010904//EN"
 "http://www.w3.org/TR/2001/REC-SVG-20010904/DTD/svg10.dtd">
<svg version="1.0" xmlns="http://www.w3.org/2000/svg"
 width="460.000000pt" height="460.000000pt" viewBox="0 0 460.000000 460.000000"
 preserveAspectRatio="xMidYMid meet">

<g transform="translate(0.000000,460.000000) scale(0.100000,-0.100000)"
fill="#1A2634" stroke="none">
<path d="M0 2300 l0 -2300 2300 0 2300 0 0 2300 0 2300 -2300 0 -2300 0 0
-2300z m1944 748 c7 -18 39 -100 71 -183 32 -82 73 -188 91 -235 18 -47 57
-148 87 -225 30 -77 67 -175 83 -217 16 -43 31 -74 35 -70 3 4 86 222 185 484
l179 478 253 0 252 0 0 -750 0 -750 -210 0 -210 0 -2 403 -3 402 -27 -80 c-15
-44 -63 -186 -108 -315 -45 -129 -92 -269 -106 -310 -13 -41 -28 -81 -32 -88
-7 -9 -50 -12 -183 -10 l-174 3 -37 110 c-21 61 -81 238 -134 395 -53 157
-100 292 -105 300 -5 8 -9 -171 -9 -397 l0 -413 -205 0 -205 0 0 750 0 750
251 0 250 0 13 -32z"/>
</g>
</svg>
